<svg width="28" height="28" viewBox="0 0 28 28" fill="none" xmlns="http://www.w3.org/2000/svg">
<path d="M20.7074 7.29313C20.5761 7.1618 20.4109 7.0696 20.2302 7.02686C20.0495 6.98412 19.8605 6.99252 19.6844 7.05113L10.6844 10.0511C10.537 10.1003 10.403 10.1831 10.2932 10.2929C10.1833 10.4028 10.1005 10.5367 10.0514 10.6841L7.05136 19.6841C6.9926 19.8603 6.98407 20.0494 7.02674 20.2302C7.0694 20.4109 7.16156 20.5763 7.29289 20.7076C7.42423 20.8389 7.58955 20.9311 7.77032 20.9738C7.95109 21.0164 8.14017 21.0079 8.31636 20.9491L17.3164 17.9491C17.4638 17.9 17.5977 17.8172 17.7076 17.7073C17.8174 17.5975 17.9002 17.4635 17.9494 17.3161L20.9494 8.31613C21.008 8.13995 21.0164 7.95094 20.9736 7.77026C20.9309 7.58958 20.8387 7.42437 20.7074 7.29313ZM9.58136 18.4201L11.7914 11.7921L16.2104 16.2111L9.58136 18.4201Z" fill="#1A6C78"/>
<path d="M14 28C11.2311 28 8.52431 27.1789 6.22202 25.6406C3.91973 24.1022 2.12532 21.9157 1.06569 19.3576C0.00606596 16.7994 -0.271181 13.9845 0.269012 11.2687C0.809205 8.55301 2.14258 6.05845 4.10051 4.10051C6.05845 2.14258 8.55301 0.809205 11.2687 0.269012C13.9845 -0.271181 16.7994 0.00606596 19.3576 1.06569C21.9157 2.12532 24.1022 3.91973 25.6406 6.22202C27.1789 8.52431 28 11.2311 28 14C27.9958 17.7117 26.5194 21.2702 23.8948 23.8948C21.2702 26.5194 17.7117 27.9958 14 28ZM14 2.00001C11.6266 2.00001 9.30655 2.70379 7.33316 4.02237C5.35977 5.34095 3.8217 7.21509 2.91345 9.40781C2.0052 11.6005 1.76756 14.0133 2.23058 16.3411C2.69361 18.6689 3.83649 20.8071 5.51472 22.4853C7.19296 24.1635 9.33115 25.3064 11.6589 25.7694C13.9867 26.2325 16.3995 25.9948 18.5922 25.0866C20.7849 24.1783 22.6591 22.6402 23.9776 20.6668C25.2962 18.6935 26 16.3734 26 14C25.9963 10.8185 24.7308 7.76845 22.4812 5.51882C20.2316 3.26918 17.1815 2.00371 14 2.00001Z" fill="#1A6C78"/>
</svg>
