<svg width="28" height="28" viewBox="0 0 28 28" fill="none" xmlns="http://www.w3.org/2000/svg">
<path d="M12.0556 4.27778C12.0556 3.14324 11.6049 2.05517 10.8026 1.25293C10.0004 0.450693 8.91232 0 7.77778 0C6.64324 0 5.55517 0.450693 4.75293 1.25293C3.95069 2.05517 3.5 3.14324 3.5 4.27778C3.5 5.41231 3.95069 6.50038 4.75293 7.30262C5.55517 8.10486 6.64324 8.55556 7.77778 8.55556C8.91232 8.55556 10.0004 8.10486 10.8026 7.30262C11.6049 6.50038 12.0556 5.41231 12.0556 4.27778ZM5.05556 4.27778C5.05556 3.92029 5.12597 3.5663 5.26277 3.23603C5.39958 2.90575 5.60009 2.60566 5.85288 2.35288C6.10566 2.10009 6.40575 1.89958 6.73603 1.76277C7.0663 1.62597 7.42029 1.55556 7.77778 1.55556C8.13527 1.55556 8.48925 1.62597 8.81953 1.76277C9.1498 1.89958 9.4499 2.10009 9.70268 2.35288C9.95546 2.60566 10.156 2.90575 10.2928 3.23603C10.4296 3.5663 10.5 3.92029 10.5 4.27778C10.5 4.99976 10.2132 5.69216 9.70268 6.20268C9.19216 6.7132 8.49976 7 7.77778 7C7.0558 7 6.36339 6.7132 5.85288 6.20268C5.34236 5.69216 5.05556 4.99976 5.05556 4.27778ZM2.33333 10.1111H8.84022C8.58511 10.5933 8.39533 11.116 8.28333 11.6667H2.33333C2.12705 11.6667 1.92922 11.7486 1.78336 11.8945C1.6375 12.0403 1.55556 12.2382 1.55556 12.4444V13.2222C1.55556 15.1822 3.26511 17.2884 6.37156 17.78C5.87067 18.1222 5.45378 18.578 5.15667 19.1084C1.87444 18.2202 0 15.6909 0 13.2222V12.4444C0 11.8256 0.245833 11.2321 0.683418 10.7945C1.121 10.3569 1.71449 10.1111 2.33333 10.1111ZM10.7007 10.1111C11.4847 9.16222 12.6716 8.55556 14 8.55556C14.9316 8.55393 15.8381 8.85711 16.5813 9.41884C17.3244 9.98056 17.8634 10.77 18.116 11.6667C18.3411 12.467 18.3285 13.3156 18.0795 14.1088C17.8305 14.902 17.356 15.6056 16.7139 16.1338C16.0718 16.6619 15.2899 16.9917 14.4635 17.0829C13.6371 17.1742 12.8021 17.0229 12.0602 16.6476C11.489 16.3569 10.9905 15.9415 10.6014 15.4323C10.2123 14.923 9.94259 14.3328 9.81222 13.7053C9.68185 13.0778 9.69414 12.429 9.84819 11.8069C10.0022 11.1848 10.2941 10.6053 10.7022 10.1111H10.7007ZM11.5407 11.6667C11.3875 11.9898 11.2994 12.34 11.2815 12.6972C11.2637 13.0544 11.3163 13.4116 11.4365 13.7485C11.5567 14.0853 11.742 14.3952 11.982 14.6604C12.2219 14.9257 12.5117 15.141 12.8349 15.2942C13.1581 15.4474 13.5082 15.5355 13.8654 15.5534C14.2226 15.5712 14.5799 15.5186 14.9167 15.3984C15.2536 15.2782 15.5634 15.0929 15.8287 14.8529C16.0939 14.613 16.3092 14.3232 16.4624 14C16.7719 13.3471 16.8093 12.5981 16.5664 11.9176C16.3235 11.2372 15.8203 10.6811 15.1674 10.3717C14.5146 10.0622 13.7655 10.0249 13.0851 10.2677C12.4046 10.5106 11.8485 11.0138 11.5391 11.6667H11.5407ZM22.8433 19.1084C22.547 18.5777 22.1311 18.1234 21.6284 17.7816C24.7333 17.2884 26.4444 15.1807 26.4444 13.2222V12.4444C26.4444 12.2382 26.3625 12.0403 26.2166 11.8945C26.0708 11.7486 25.8729 11.6667 25.6667 11.6667H19.7167C19.6068 11.1243 19.4198 10.6005 19.1613 10.1111H25.6667C26.2855 10.1111 26.879 10.3569 27.3166 10.7945C27.7542 11.2321 28 11.8256 28 12.4444V13.2222C28 15.6909 26.124 18.2187 22.8433 19.1084ZM20.9798 19.2438C20.5552 18.8711 20.0094 18.6659 19.4444 18.6667H8.55556C8.24891 18.6658 7.94512 18.7256 7.66166 18.8426C7.37819 18.9596 7.12064 19.1314 6.90381 19.3483C6.68698 19.5651 6.51513 19.8226 6.39816 20.1061C6.28119 20.3896 6.2214 20.6934 6.22222 21V21.7778C6.22222 24.8438 9.11556 28 14 28C18.8844 28 21.7778 24.8438 21.7778 21.7778V21C21.7778 20.3 21.4698 19.6716 20.9798 19.2422V19.2438ZM7.77778 21C7.77778 20.7937 7.85972 20.5959 8.00558 20.45C8.15145 20.3042 8.34928 20.2222 8.55556 20.2222H19.4444C19.6507 20.2222 19.8486 20.3042 19.9944 20.45C20.1403 20.5959 20.2222 20.7937 20.2222 21V21.7778C20.2222 24.0147 17.9947 26.4444 14 26.4444C10.0053 26.4444 7.77778 24.0147 7.77778 21.7778V21ZM20.2222 0C21.3568 0 22.4448 0.450693 23.2471 1.25293C24.0493 2.05517 24.5 3.14324 24.5 4.27778C24.5 5.41231 24.0493 6.50038 23.2471 7.30262C22.4448 8.10486 21.3568 8.55556 20.2222 8.55556C19.0877 8.55556 17.9996 8.10486 17.1974 7.30262C16.3951 6.50038 15.9444 5.41231 15.9444 4.27778C15.9444 3.14324 16.3951 2.05517 17.1974 1.25293C17.9996 0.450693 19.0877 0 20.2222 0ZM20.2222 1.55556C19.5002 1.55556 18.8078 1.84236 18.2973 2.35288C17.7868 2.86339 17.5 3.5558 17.5 4.27778C17.5 4.99976 17.7868 5.69216 18.2973 6.20268C18.8078 6.7132 19.5002 7 20.2222 7C20.9442 7 21.6366 6.7132 22.1471 6.20268C22.6576 5.69216 22.9444 4.99976 22.9444 4.27778C22.9444 3.5558 22.6576 2.86339 22.1471 2.35288C21.6366 1.84236 20.9442 1.55556 20.2222 1.55556Z" fill="#333333"/>
</svg>
