<svg width="15" height="9" viewBox="0 0 15 9" fill="none" xmlns="http://www.w3.org/2000/svg">
<path d="M14.0013 1.32953C14.0018 1.50058 13.9688 1.66958 13.9048 1.82411C13.8408 1.97865 13.7473 2.1148 13.6313 2.22256L7.63126 7.75249C7.45233 7.92088 7.22789 8.01294 6.99626 8.01294C6.76464 8.01294 6.54019 7.92088 6.36126 7.75249L0.361253 2.02793C0.157036 1.83359 0.0286113 1.55433 0.00423151 1.25159C-0.0201483 0.948845 0.0615138 0.647411 0.231253 0.413601C0.400991 0.179791 0.644903 0.0327573 0.90933 0.00484467C1.17376 -0.0230684 1.43704 0.0704269 1.64125 0.264763L7.00126 5.38252L12.3613 0.4365C12.5081 0.296497 12.6868 0.207563 12.8763 0.180223C13.0659 0.152884 13.2583 0.188281 13.4308 0.282228C13.6034 0.376174 13.7488 0.524738 13.8499 0.71034C13.951 0.895942 14.0035 1.11081 14.0013 1.32953Z" fill="black"/>
</svg>
