<svg width="26" height="26" viewBox="0 0 26 26" fill="none" xmlns="http://www.w3.org/2000/svg">
<path d="M25.1116 20.8143L20.7196 16.416L17.3413 15.0183C18.4662 13.4164 19.0688 11.5053 19.0666 9.54697C19.0666 4.28274 14.79 0 9.53331 0C4.27661 0 0 4.28274 0 9.54697C0 14.8112 4.27661 19.0939 9.53331 19.0939C11.5059 19.0962 13.43 18.4823 15.0377 17.3377L16.4297 20.7117L20.8216 25.1102C21.1033 25.3923 21.4377 25.6161 21.8057 25.7687C22.1737 25.9214 22.5682 26 22.9665 26C23.3649 26 23.7593 25.9215 24.1274 25.7688C24.4954 25.6162 24.8298 25.3924 25.1115 25.1103C25.3932 24.8283 25.6166 24.4934 25.7691 24.1248C25.9215 23.7563 26 23.3613 26 22.9624C26 22.5634 25.9216 22.1684 25.7691 21.7999C25.6167 21.4313 25.3933 21.0964 25.1116 20.8143ZM1.73333 9.54697C1.73333 5.23998 5.23249 1.73581 9.53331 1.73581C13.8341 1.73581 17.3333 5.23998 17.3333 9.54697C17.3333 13.854 13.8341 17.3581 9.53331 17.3581C5.23249 17.3581 1.73333 13.854 1.73333 9.54697ZM23.8859 23.8828C23.6419 24.1266 23.3113 24.2635 22.9666 24.2635C22.6219 24.2635 22.2913 24.1266 22.0474 23.8828L17.8997 19.7292L16.6055 16.592L19.7383 17.8881L23.886 22.0417C24.1294 22.2861 24.2661 22.6171 24.2661 22.9623C24.266 23.3074 24.1293 23.6385 23.8859 23.8828Z" fill="#979797"/>
</svg>
