<svg width="2796" height="535" viewBox="0 0 2796 535" fill="none" xmlns="http://www.w3.org/2000/svg">
<g clip-path="url(#clip0_108_11)">
<path d="M47.7239 160.673C50.9517 160.673 54.2946 161.596 57.7528 163.443C61.4416 165.059 64.2082 167.252 66.0527 170.023L150.088 299.531L132.797 298.838L218.908 170.023C223.287 163.79 228.936 160.673 235.853 160.673C241.386 160.673 246.344 162.635 250.723 166.56C255.103 170.484 257.294 175.563 257.294 181.796V382.291C257.294 388.294 255.335 393.372 251.415 397.527C247.495 401.452 242.308 403.414 235.853 403.414C229.398 403.414 224.095 401.452 219.945 397.527C216.025 393.372 214.066 388.294 214.066 382.291V219.194L227.553 222.311L157.005 330.003C154.93 332.543 152.279 334.735 149.051 336.582C146.054 338.43 142.941 339.237 139.714 339.006C136.716 339.237 133.604 338.43 130.376 336.582C127.379 334.735 124.843 332.543 122.768 330.003L56.7154 225.427L65.7068 207.074V382.291C65.7068 388.294 63.8624 393.372 60.1736 397.527C56.4849 401.452 51.6433 403.414 45.6489 403.414C39.8852 403.414 35.1588 401.452 31.4701 397.527C27.7814 393.372 25.9369 388.294 25.9369 382.291V181.796C25.9369 176.025 28.0118 171.061 32.1618 166.906C36.5421 162.751 41.7295 160.673 47.7239 160.673ZM443.118 218.155C449.113 218.155 454.071 220.233 457.989 224.388C461.909 228.313 463.868 233.276 463.868 239.278V386.447C463.868 407.685 459.834 424.537 451.764 437.003C443.926 449.699 433.321 458.819 419.948 464.359C406.577 469.9 391.59 472.67 374.991 472.67C367.614 472.67 359.774 472.093 351.475 470.938C343.175 469.784 336.374 468.052 331.071 465.744C324.154 462.744 319.313 458.935 316.546 454.317C314.011 449.931 313.55 445.198 315.163 440.12C317.238 433.424 320.582 428.808 325.192 426.269C329.803 423.961 334.645 423.729 339.717 425.576C343.406 426.731 348.248 428.462 354.241 430.77C360.236 433.31 367.153 434.579 374.991 434.579C385.597 434.579 394.357 433.078 401.273 430.078C408.422 427.307 413.723 422.459 417.181 415.534C420.871 408.839 422.715 399.605 422.715 387.832V364.631L429.977 372.942C426.059 380.56 421.101 386.909 415.106 391.987C409.343 396.835 402.427 400.528 394.357 403.068C386.289 405.608 377.066 406.877 366.691 406.877C354.473 406.877 343.752 404.107 334.529 398.566C325.538 392.796 318.507 384.945 313.434 375.019C308.362 364.861 305.826 353.32 305.826 340.392V239.278C305.826 233.276 307.786 228.313 311.705 224.388C315.625 220.233 320.582 218.155 326.575 218.155C332.57 218.155 337.527 220.233 341.446 224.388C345.366 228.313 347.325 233.276 347.325 239.278V327.925C347.325 342.931 350.553 353.55 357.008 359.783C363.694 365.786 372.916 368.786 384.674 368.786C392.744 368.786 399.544 367.285 405.078 364.285C410.611 361.052 414.877 356.436 417.873 350.434C420.871 344.201 422.369 336.698 422.369 327.925V239.278C422.369 233.276 424.33 228.313 428.248 224.388C432.168 220.233 437.125 218.155 443.118 218.155Z" fill="white"/>
<path d="M840.356 0L1082.95 401.25H597.767L840.356 0Z" fill="white"/>
<path d="M843.778 167.38C843.467 165.01 841.295 163.341 838.928 163.653C836.561 163.965 834.894 166.139 835.205 168.509L843.778 167.38ZM865.465 398.784L866.03 403.076L874.602 401.946L874.038 397.655L865.465 398.784ZM835.205 168.509L865.465 398.784L874.038 397.655L843.778 167.38L835.205 168.509Z" fill="#457275"/>
<path d="M804.945 397.654L804.38 401.944L812.951 403.078L813.518 398.786L804.945 397.654ZM843.759 169.377C844.07 167.007 842.405 164.832 840.038 164.519C837.671 164.206 835.499 165.874 835.188 168.244L843.759 169.377ZM813.518 398.786L843.759 169.377L835.188 168.244L804.945 397.654L813.518 398.786Z" fill="#457275"/>
<path d="M622.486 361.861L646.694 401.683H598.278L622.486 361.861Z" fill="#457275"/>
<path d="M1057.36 361.861L1082.43 401.683H1032.29L1057.36 361.861Z" fill="#457275"/>
<path d="M1211.08 206.035C1227.22 206.035 1241.63 210.191 1254.31 218.502C1267.22 226.582 1277.36 237.777 1284.74 252.091C1292.35 266.404 1296.15 283.025 1296.15 301.955C1296.15 320.884 1292.35 337.621 1284.74 352.165C1277.36 366.478 1267.33 377.79 1254.66 386.1C1242.21 394.181 1228.14 398.22 1212.46 398.22C1203.24 398.22 1194.6 396.719 1186.53 393.718C1178.46 390.718 1171.31 386.909 1165.09 382.291C1159.09 377.674 1154.37 373.058 1150.91 368.44C1147.68 363.592 1146.07 359.553 1146.07 356.32L1156.79 351.819V442.89C1156.79 448.893 1154.83 453.855 1150.91 457.78C1146.99 461.935 1142.03 464.013 1136.04 464.013C1130.04 464.013 1125.09 462.051 1121.17 458.126C1117.25 454.201 1115.29 449.123 1115.29 442.89V230.621C1115.29 224.619 1117.25 219.656 1121.17 215.731C1125.09 211.576 1130.04 209.498 1136.04 209.498C1142.03 209.498 1146.99 211.576 1150.91 215.731C1154.83 219.656 1156.79 224.619 1156.79 230.621V247.589L1150.91 244.472C1150.91 241.472 1152.52 237.893 1155.75 233.738C1158.98 229.352 1163.36 225.081 1168.89 220.925C1174.42 216.54 1180.76 212.961 1187.91 210.191C1195.29 207.421 1203.01 206.035 1211.08 206.035ZM1205.89 244.126C1195.75 244.126 1186.87 246.666 1179.27 251.744C1171.66 256.822 1165.66 263.748 1161.28 272.521C1157.13 281.062 1155.06 290.874 1155.06 301.955C1155.06 312.805 1157.13 322.731 1161.28 331.735C1165.66 340.508 1171.66 347.433 1179.27 352.511C1186.87 357.589 1195.75 360.129 1205.89 360.129C1216.04 360.129 1224.8 357.589 1232.18 352.511C1239.78 347.433 1245.66 340.508 1249.81 331.735C1254.19 322.731 1256.38 312.805 1256.38 301.955C1256.38 290.874 1254.19 281.062 1249.81 272.521C1245.66 263.748 1239.78 256.822 1232.18 251.744C1224.8 246.666 1216.04 244.126 1205.89 244.126ZM1426.55 206.035C1442.69 206.035 1457.09 210.191 1469.77 218.502C1482.69 226.582 1492.83 237.777 1500.21 252.091C1507.82 266.404 1511.62 283.025 1511.62 301.955C1511.62 320.884 1507.82 337.621 1500.21 352.165C1492.83 366.478 1482.8 377.79 1470.12 386.1C1457.67 394.181 1443.61 398.22 1427.93 398.22C1418.71 398.22 1410.06 396.719 1401.99 393.718C1393.92 390.718 1386.78 386.909 1380.55 382.291C1374.56 377.674 1369.83 373.058 1366.37 368.44C1363.15 363.592 1361.53 359.553 1361.53 356.32L1372.25 351.819V442.89C1372.25 448.893 1370.29 453.855 1366.37 457.78C1362.45 461.935 1357.5 464.013 1351.5 464.013C1345.51 464.013 1340.55 462.051 1336.63 458.126C1332.71 454.201 1330.75 449.123 1330.75 442.89V230.621C1330.75 224.619 1332.71 219.656 1336.63 215.731C1340.55 211.576 1345.51 209.498 1351.5 209.498C1357.5 209.498 1362.45 211.576 1366.37 215.731C1370.29 219.656 1372.25 224.619 1372.25 230.621V247.589L1366.37 244.472C1366.37 241.472 1367.99 237.893 1371.21 233.738C1374.44 229.352 1378.82 225.081 1384.36 220.925C1389.89 216.54 1396.23 212.961 1403.38 210.191C1410.75 207.421 1418.48 206.035 1426.55 206.035ZM1421.36 244.126C1411.22 244.126 1402.34 246.666 1394.73 251.744C1387.12 256.822 1381.13 263.748 1376.75 272.521C1372.6 281.062 1370.52 290.874 1370.52 301.955C1370.52 312.805 1372.6 322.731 1376.75 331.735C1381.13 340.508 1387.12 347.433 1394.73 352.511C1402.34 357.589 1411.22 360.129 1421.36 360.129C1431.5 360.129 1440.27 357.589 1447.64 352.511C1455.25 347.433 1461.13 340.508 1465.28 331.735C1469.66 322.731 1471.85 312.805 1471.85 301.955C1471.85 290.874 1469.66 281.062 1465.28 272.521C1461.13 263.748 1455.25 256.822 1447.64 251.744C1440.27 246.666 1431.5 244.126 1421.36 244.126ZM1552.83 209.498C1557.21 209.498 1561.25 210.653 1564.93 212.961C1568.62 215.039 1571.39 218.271 1573.23 222.657L1624.07 339.006L1616.46 342.469L1668.34 223.003C1672.26 213.77 1678.36 209.382 1686.66 209.845C1692.43 209.845 1697.04 211.692 1700.5 215.385C1704.19 218.848 1706.03 223.233 1706.03 228.544C1706.03 230.159 1705.68 231.89 1704.99 233.738C1704.53 235.585 1703.96 237.317 1703.26 238.932L1638.59 381.599C1634.91 389.909 1629.03 394.295 1620.96 394.757C1616.58 395.45 1612.31 394.641 1608.16 392.333C1604.24 390.025 1601.25 386.447 1599.17 381.599L1534.85 238.932C1534.39 237.777 1533.81 236.278 1533.12 234.43C1532.66 232.583 1532.43 230.391 1532.43 227.851C1532.43 223.696 1534.27 219.656 1537.96 215.731C1541.65 211.576 1546.6 209.498 1552.83 209.498ZM1822.45 398.22C1802.86 398.22 1785.79 394.181 1771.27 386.1C1756.97 377.79 1745.9 366.593 1738.07 352.511C1730.46 338.43 1726.66 322.501 1726.66 304.725C1726.66 283.948 1730.81 266.288 1739.11 251.744C1747.63 236.97 1758.7 225.657 1772.3 217.809C1785.91 209.961 1800.32 206.035 1815.53 206.035C1827.29 206.035 1838.36 208.459 1848.73 213.307C1859.33 218.155 1868.67 224.851 1876.74 233.391C1884.82 241.702 1891.15 251.398 1895.76 262.479C1900.61 273.56 1903.03 285.333 1903.03 297.799C1902.8 303.34 1900.61 307.841 1896.46 311.304C1892.31 314.767 1887.46 316.498 1881.93 316.498H1749.83L1739.45 281.87H1866.37L1858.76 288.796V279.446C1858.29 272.751 1855.87 266.75 1851.5 261.44C1847.35 256.13 1842.04 251.975 1835.59 248.974C1829.37 245.742 1822.67 244.126 1815.53 244.126C1808.62 244.126 1802.17 245.049 1796.17 246.896C1790.17 248.744 1784.98 251.86 1780.6 256.246C1776.23 260.631 1772.77 266.518 1770.23 273.906C1767.69 281.294 1766.43 290.643 1766.43 301.955C1766.43 314.421 1768.97 325.039 1774.03 333.812C1779.34 342.353 1786.02 348.932 1794.09 353.55C1802.39 357.936 1811.16 360.129 1820.37 360.129C1828.9 360.129 1835.71 359.437 1840.78 358.052C1845.84 356.667 1849.89 355.051 1852.88 353.204C1856.12 351.126 1858.99 349.395 1861.53 348.01C1865.68 345.932 1869.6 344.893 1873.29 344.893C1878.35 344.893 1882.5 346.625 1885.74 350.087C1889.19 353.55 1890.92 357.589 1890.92 362.207C1890.92 368.44 1887.69 374.097 1881.24 379.175C1875.24 384.253 1866.84 388.754 1855.99 392.68C1845.15 396.373 1833.98 398.22 1822.45 398.22ZM2036.55 206.035C2053.6 206.035 2066.52 209.614 2075.28 216.77C2084.27 223.926 2090.38 233.507 2093.61 245.511C2097.07 257.285 2098.8 270.443 2098.8 284.987V373.634C2098.8 379.637 2096.83 384.715 2092.92 388.87C2088.99 392.796 2084.03 394.757 2078.05 394.757C2072.05 394.757 2067.09 392.796 2063.18 388.87C2059.25 384.715 2057.3 379.637 2057.3 373.634V284.987C2057.3 277.369 2056.26 270.559 2054.19 264.557C2052.34 258.324 2048.88 253.36 2043.81 249.667C2038.73 245.974 2031.47 244.126 2022.02 244.126C2012.79 244.126 2004.96 245.974 1998.51 249.667C1992.28 253.36 1987.44 258.324 1983.98 264.557C1980.75 270.559 1979.14 277.369 1979.14 284.987V373.634C1979.14 379.637 1977.17 384.715 1973.26 388.87C1969.34 392.796 1964.38 394.757 1958.39 394.757C1952.39 394.757 1947.43 392.796 1943.52 388.87C1939.6 384.715 1937.64 379.637 1937.64 373.634V230.621C1937.64 224.619 1939.6 219.656 1943.52 215.731C1947.43 211.576 1952.39 209.498 1958.39 209.498C1964.38 209.498 1969.34 211.576 1973.26 215.731C1977.17 219.656 1979.14 224.619 1979.14 230.621V245.511L1973.96 244.472C1976.03 240.547 1979.02 236.392 1982.95 232.006C1986.85 227.389 1991.47 223.119 1996.78 219.194C2002.07 215.269 2008.07 212.152 2014.76 209.845C2021.44 207.305 2028.7 206.035 2036.55 206.035ZM2145.73 212.961H2227.69C2233.22 212.961 2237.82 214.808 2241.52 218.502C2245.2 222.195 2247.05 226.812 2247.05 232.353C2247.05 237.663 2245.2 242.164 2241.52 245.858C2237.82 249.32 2233.22 251.052 2227.69 251.052H2145.73C2140.19 251.052 2135.58 249.204 2131.89 245.511C2128.19 241.818 2126.36 237.201 2126.36 231.66C2126.36 226.35 2128.19 221.964 2131.89 218.502C2135.58 214.808 2140.19 212.961 2145.73 212.961ZM2182.73 169.676C2188.71 169.676 2193.55 171.754 2197.25 175.909C2201.16 179.834 2203.13 184.797 2203.13 190.799V344.893C2203.13 348.126 2203.7 350.78 2204.86 352.858C2206.25 354.935 2207.98 356.436 2210.05 357.359C2212.35 358.282 2214.77 358.744 2217.31 358.744C2220.08 358.744 2222.6 358.282 2224.92 357.359C2227.22 356.204 2229.87 355.628 2232.87 355.628C2236.09 355.628 2238.98 357.129 2241.52 360.129C2244.29 363.13 2245.67 367.285 2245.67 372.595C2245.67 379.059 2242.09 384.369 2234.95 388.524C2228.03 392.68 2220.53 394.757 2212.47 394.757C2207.63 394.757 2202.2 394.411 2196.22 393.718C2190.44 392.796 2184.91 390.832 2179.62 387.832C2174.53 384.599 2170.28 379.751 2166.82 373.288C2163.36 366.825 2161.63 357.936 2161.63 346.625V190.799C2161.63 184.797 2163.59 179.834 2167.51 175.909C2171.66 171.754 2176.73 169.676 2182.73 169.676ZM2422.44 209.498C2428.44 209.498 2433.4 211.576 2437.31 215.731C2441.23 219.656 2443.19 224.619 2443.19 230.621V318.576C2443.19 343.046 2436.39 362.437 2422.78 376.751C2409.19 391.064 2389.59 398.22 2363.99 398.22C2338.4 398.22 2318.81 391.064 2305.2 376.751C2291.84 362.437 2285.15 343.046 2285.15 318.576V230.621C2285.15 224.619 2287.12 219.656 2291.03 215.731C2294.95 211.576 2299.91 209.498 2305.9 209.498C2311.9 209.498 2316.86 211.576 2320.77 215.731C2324.69 219.656 2326.65 224.619 2326.65 230.621V318.576C2326.65 332.657 2329.76 343.162 2335.98 350.087C2342.21 356.783 2351.54 360.129 2363.99 360.129C2376.69 360.129 2386.13 356.783 2392.35 350.087C2398.58 343.162 2401.69 332.657 2401.69 318.576V230.621C2401.69 224.619 2403.66 219.656 2407.57 215.731C2411.49 211.576 2416.46 209.498 2422.44 209.498ZM2508.88 394.757C2502.88 394.757 2497.92 392.796 2494.01 388.87C2490.08 384.715 2488.13 379.637 2488.13 373.634V230.621C2488.13 224.619 2490.08 219.656 2494.01 215.731C2497.92 211.576 2502.88 209.498 2508.88 209.498C2514.86 209.498 2519.82 211.576 2523.75 215.731C2527.66 219.656 2529.63 224.619 2529.63 230.621V263.171L2527.21 239.971C2529.73 234.43 2532.97 229.582 2536.89 225.427C2541.04 221.041 2545.64 217.463 2550.72 214.692C2555.79 211.692 2561.2 209.498 2566.98 208.113C2572.73 206.728 2578.49 206.035 2584.27 206.035C2591.18 206.035 2596.94 207.997 2601.56 211.922C2606.4 215.847 2608.82 220.463 2608.82 225.773C2608.82 233.391 2606.85 238.932 2602.94 242.395C2599.02 245.627 2594.75 247.243 2590.15 247.243C2585.76 247.243 2581.73 246.434 2578.04 244.819C2574.58 243.203 2570.54 242.395 2565.94 242.395C2561.79 242.395 2557.52 243.434 2553.14 245.511C2548.99 247.359 2545.07 250.359 2541.39 254.514C2537.93 258.67 2535.04 263.864 2532.74 270.097C2530.67 276.1 2529.63 283.256 2529.63 291.566V373.634C2529.63 379.637 2527.66 384.715 2523.75 388.87C2519.82 392.796 2514.86 394.757 2508.88 394.757ZM2715.72 398.22C2696.13 398.22 2679.06 394.181 2664.53 386.1C2650.25 377.79 2639.19 366.593 2631.34 352.511C2623.73 338.43 2619.92 322.501 2619.92 304.725C2619.92 283.948 2624.07 266.288 2632.37 251.744C2640.91 236.97 2651.98 225.657 2665.57 217.809C2679.18 209.961 2693.58 206.035 2708.8 206.035C2720.56 206.035 2731.62 208.459 2742 213.307C2752.62 218.155 2761.95 224.851 2770.01 233.391C2778.09 241.702 2784.43 251.398 2789.03 262.479C2793.87 273.56 2796.29 285.333 2796.29 297.799C2796.07 303.34 2793.87 307.841 2789.72 311.304C2785.57 314.767 2780.73 316.498 2775.2 316.498H2643.09L2632.72 281.87H2759.64L2752.03 288.796V279.446C2751.58 272.751 2749.16 266.75 2744.77 261.44C2740.62 256.13 2735.32 251.975 2728.86 248.974C2722.63 245.742 2715.96 244.126 2708.8 244.126C2701.88 244.126 2695.43 245.049 2689.43 246.896C2683.45 248.744 2678.26 251.86 2673.87 256.246C2669.5 260.631 2666.04 266.518 2663.5 273.906C2660.97 281.294 2659.69 290.643 2659.69 301.955C2659.69 314.421 2662.23 325.039 2667.3 333.812C2672.61 342.353 2679.3 348.932 2687.36 353.55C2695.66 357.936 2704.43 360.129 2713.64 360.129C2722.18 360.129 2728.98 359.437 2734.05 358.052C2739.13 356.667 2743.16 355.051 2746.15 353.204C2749.38 351.126 2752.27 349.395 2754.79 348.01C2758.94 345.932 2762.87 344.893 2766.55 344.893C2771.64 344.893 2775.79 346.625 2779 350.087C2782.46 353.55 2784.19 357.589 2784.19 362.207C2784.19 368.44 2780.97 374.097 2774.51 379.175C2768.52 384.253 2760.1 388.754 2749.26 392.68C2738.44 396.373 2727.25 398.22 2715.72 398.22Z" fill="white"/>
</g>
<defs>
<clipPath id="clip0_108_11">
<rect width="2796" height="535" fill="white"/>
</clipPath>
</defs>
</svg>
