<svg width="146" height="138" viewBox="0 0 146 138" fill="none" xmlns="http://www.w3.org/2000/svg">
<path d="M18.9994 95.7912L15.519 98.1348C15.519 98.1348 56.4846 99.0634 75.228 103.031C93.9698 107 133.038 111.097 130.349 98.1348C127.66 85.1718 96.8813 91.4788 96.8813 91.4788L18.9994 95.7912Z" fill="url(#paint0_linear_464_283)"/>
<path d="M29.128 100.261C33.3692 100.261 36.8073 99.9398 36.8073 99.5431C36.8073 99.1464 33.3692 98.8248 29.128 98.8248C24.8869 98.8248 21.4487 99.1464 21.4487 99.5431C21.4487 99.9398 24.8869 100.261 29.128 100.261Z" fill="#0D6130"/>
<path d="M81.2147 98.1402H15.519C16.2134 95.3007 18.7014 92.9261 22.072 91.6943C23.3223 91.2334 24.6968 90.9315 26.1411 90.8197C27.0336 88.5543 28.582 86.5005 30.6209 84.7728C34.5475 81.4508 40.2976 79.3552 46.708 79.3552C55.5321 79.3552 63.1073 83.3281 66.3952 89.0058C66.8115 88.9734 67.2307 88.9505 67.657 88.9505C73.8706 88.9505 78.9064 92.7038 78.9064 97.3316C78.9064 97.3788 78.9064 97.4178 78.8993 97.457C79.7319 97.589 80.5133 97.8222 81.2147 98.1402Z" fill="url(#paint1_linear_464_283)"/>
<path d="M38.2817 98.1402H130.349C129.376 93.1228 125.892 88.9263 121.164 86.7498C119.414 85.9344 117.488 85.4022 115.464 85.204C114.212 81.2016 112.042 77.5696 109.183 74.5185C103.682 68.6467 95.6239 64.9447 86.6415 64.9447C74.2742 64.9447 63.6608 71.9646 59.0498 81.9966C58.4666 81.9413 57.8792 81.9009 57.2832 81.9009C48.5732 81.9009 41.5184 88.5341 41.5184 96.7117C41.5184 96.7939 41.5184 96.8653 41.5269 96.934C40.3605 97.1645 39.2655 97.5796 38.2817 98.1402Z" fill="url(#paint2_linear_464_283)"/>
<path d="M29.7371 97.19C29.7371 97.19 29.556 98.7358 29.1353 99.4595H27.932C28.4125 98.8112 28.6177 97.062 28.6177 97.062C28.6177 97.062 28.9614 88.406 27.3474 86.398C25.7363 84.3874 25.3257 81.374 25.3257 81.374L26.4235 81.5047C26.4392 81.8618 26.519 82.192 26.646 82.4966C26.9012 83.5532 27.4415 85.2458 28.4695 86.5288C30.0807 88.5367 29.7371 97.19 29.7371 97.19Z" fill="#B47954"/>
<path d="M31.361 87.0786C30.6053 88.8292 30.4699 93.4301 31.4979 96.5432C32.5273 99.6536 31.4979 99.4595 31.4979 99.4595H29.1353C29.556 98.7359 29.7371 97.1901 29.7371 97.1901C29.7371 97.1901 30.0807 88.5368 28.4695 86.5288C27.4416 85.2458 26.9012 83.5531 26.646 82.4966C27.3646 84.2809 29.6002 85.1339 29.6002 85.1339L29.5417 84.634L29.2352 81.9791L30.7208 81.8726L30.7465 82.0788L31.1556 85.4372C31.1556 85.4372 31.7944 83.9453 31.7944 84.2257C31.7944 84.3712 31.9784 84.4938 32.1522 84.576C32.3177 84.6542 32.4803 84.7013 32.4803 84.7013C32.4803 84.7013 32.3975 84.8456 32.2293 85.1838C32.0454 85.5557 31.756 86.1635 31.361 87.0786Z" fill="#955B43"/>
<path d="M31.5822 78.614C31.5822 81.1974 29.3665 83.293 26.6319 83.293C23.8973 83.293 21.6816 81.1975 21.6816 78.614C21.6816 76.0292 23.8973 73.9336 26.6319 73.9336C29.3665 73.9336 31.5822 76.0292 31.5822 78.614Z" fill="url(#paint3_linear_464_283)"/>
<path d="M28.2616 78.3957C27.9422 78.4833 27.6172 78.5466 27.2793 78.5803L28.2616 78.3957Z" fill="url(#paint4_linear_464_283)"/>
<path d="M32.6114 84.51C32.6114 84.6676 32.4289 84.7943 32.2036 84.7943C31.9783 84.7943 31.7729 84.3523 31.7729 84.196C31.7729 84.0384 31.9783 84.2257 32.2036 84.2257C32.4289 84.2256 32.6114 84.3536 32.6114 84.51Z" fill="#B47954"/>
<path d="M26.6319 67.4716C23.3769 67.4716 20.7363 69.9661 20.7363 73.0441C20.7363 73.4997 20.7962 73.9403 20.9073 74.3662C21.5333 76.8028 23.8587 78.614 26.6319 78.614C26.8514 78.614 27.0639 78.6032 27.2792 78.5803L28.2616 78.3957C30.721 77.7286 32.5204 75.5871 32.5246 73.0482C32.5246 73.0468 32.5246 73.0468 32.5246 73.0441C32.5247 69.9661 29.8884 67.4716 26.6319 67.4716Z" fill="url(#paint5_linear_464_283)"/>
<path opacity="0.2" d="M32.5245 73.0482C32.5203 75.5871 30.7209 77.7286 28.2614 78.3957L27.2791 78.5803C27.0638 78.6032 26.8513 78.614 26.6317 78.614C23.8586 78.614 21.5332 76.8028 20.9072 74.3662C21.5945 74.0319 22.3758 73.8419 23.207 73.8419C24.5744 73.8419 25.8176 74.3527 26.7273 75.1882C27.0395 75.4739 27.3119 75.7947 27.5357 76.1477C28.2558 74.3352 30.1064 73.0441 32.2793 73.0441C32.362 73.0441 32.4446 73.0468 32.5245 73.0482Z" fill="#009444"/>
<path d="M28.544 79.6773C28.544 80.6543 28.2331 81.5613 27.7042 82.3187C26.7974 83.6125 25.2447 84.4615 23.481 84.4615C20.6836 84.4615 18.4194 82.3214 18.4194 79.6773C18.4194 77.0345 20.6836 74.8917 23.481 74.8917C24.8483 74.8917 26.0916 75.4038 27.0013 76.2381C27.955 77.1073 28.544 78.3283 28.544 79.6773Z" fill="url(#paint6_linear_464_283)"/>
<path d="M28.5436 79.6773C28.5436 80.6544 28.2327 81.5613 27.7038 82.3187C26.7514 81.4508 26.1597 80.2299 26.1597 78.8795C26.1597 77.9025 26.469 76.9942 27.0009 76.2381C27.9546 77.1074 28.5436 78.3283 28.5436 79.6773Z" fill="url(#paint7_linear_464_283)"/>
<path d="M37.6176 78.8794C37.6176 81.5222 35.3492 83.665 32.5532 83.665C29.7573 83.665 27.4902 81.5222 27.4902 78.8794C27.4902 76.2354 29.7573 74.0939 32.5532 74.0939C35.3492 74.0939 37.6176 76.2354 37.6176 78.8794Z" fill="url(#paint8_linear_464_283)"/>
<path d="M30.2235 97.4704C30.2235 98.8612 28.2602 99.9878 25.8378 99.9878C23.4139 99.9878 21.4492 98.8612 21.4492 97.4704C21.4492 96.0809 23.4139 94.9543 25.8378 94.9543C28.2602 94.9543 30.2235 96.0809 30.2235 97.4704Z" fill="url(#paint9_linear_464_283)"/>
<path d="M31.9368 97.9677C31.9368 99.0835 30.5709 99.9878 28.8871 99.9878C27.2018 99.9878 25.8374 99.0835 25.8374 97.9677C25.8374 96.8505 27.2018 95.9449 28.8871 95.9449C30.5709 95.9449 31.9368 96.8505 31.9368 97.9677Z" fill="url(#paint10_linear_464_283)"/>
<path d="M33.0476 99.9878C34.6074 99.9878 35.872 99.0652 35.872 97.9272C35.872 96.7892 34.6074 95.8667 33.0476 95.8667C31.4877 95.8667 30.2231 96.7892 30.2231 97.9272C30.2231 99.0652 31.4877 99.9878 33.0476 99.9878Z" fill="url(#paint11_linear_464_283)"/>
<path d="M115.321 98.1402H59.5645C59.5645 95.244 61.8129 92.7347 65.0837 91.542C66.106 91.1647 67.2295 90.9181 68.4115 90.8278C69.1428 88.9734 70.4089 87.2929 72.0742 85.8805C75.2865 83.1636 79.9902 81.4494 85.2328 81.4494C92.4501 81.4494 98.6451 84.6986 101.336 89.3413C101.675 89.3171 102.019 89.2969 102.366 89.2969C107.449 89.2969 111.566 92.3668 111.566 96.1524C111.566 96.1901 111.566 96.2211 111.563 96.2548C113.123 96.4988 114.457 97.1901 115.321 98.1402Z" fill="url(#paint12_linear_464_283)"/>
<path d="M76.5683 98.1402H40.3521C40.9138 97.523 41.7807 97.0742 42.7916 96.9165C42.7901 96.8936 42.7901 96.872 42.7901 96.8505C42.7901 94.391 45.4663 92.3964 48.767 92.3964C48.9937 92.3964 49.2176 92.4072 49.4357 92.4247C51.1837 89.41 55.2073 87.3009 59.8966 87.3009C62.0738 87.3009 64.1055 87.7551 65.835 88.5448C68.2132 89.6324 70.0182 91.3534 70.8209 93.3897C71.2188 93.4206 71.608 93.48 71.9816 93.5608C74.6349 94.1471 76.5683 95.9759 76.5683 98.1402Z" fill="url(#paint13_linear_464_283)"/>
<path d="M110.87 94.767L110.717 95.1025C110.717 95.1025 111.021 98.1402 112.039 99.1522C113.057 100.167 113.942 99.4178 113.942 99.4178L110.87 94.767Z" fill="#FDC348"/>
<path d="M91.498 97.841L91.1372 98.4421L107.762 99.9717L110.717 86.4938C110.717 86.4938 100.386 87.6582 95.8009 86.3778L91.498 97.841Z" fill="#E09A01"/>
<path d="M98.2705 88.1567C100.175 87.6904 102.109 87.2942 104.061 86.9492C101.123 87.0354 97.8741 86.9573 95.801 86.3777L94.7773 89.1041C95.9251 88.7524 97.0971 88.4438 98.2705 88.1567ZM108.813 88.8817C105.645 89.3521 102.491 89.9006 99.4225 90.6525C97.9511 91.0124 96.4512 91.414 95.1552 91.856C94.6006 92.0434 94.0516 92.2415 93.5184 92.4584L92.1055 96.2237C96.38 92.8317 101.919 90.472 107.957 89.1971C108.709 89.0381 109.463 88.8912 110.221 88.7577L110.24 88.6742C109.762 88.743 109.286 88.8117 108.813 88.8817ZM107.575 92.0434C105.948 92.4355 104.664 92.7994 103.204 93.3384C101.717 93.8883 100.288 94.5203 98.9492 95.2494C97.8413 95.8545 96.5254 96.7022 95.4147 97.5189C94.8957 97.9016 94.3838 98.2884 93.9019 98.6967L107.762 99.9716L109.6 91.5919C108.92 91.7321 108.244 91.8817 107.575 92.0434Z" fill="#CE8E00"/>
<path d="M95.8379 86.4937C95.8265 86.4546 95.8122 86.4143 95.8008 86.3778C95.9819 85.8145 96.0703 85.487 96.0375 85.4817C96.009 85.4749 95.8935 85.7041 95.7139 86.1151C95.5627 85.6649 95.4629 85.4102 95.433 85.4089C95.3973 85.4075 95.4629 85.7565 95.6054 86.3657C95.1236 87.4937 94.2966 89.592 93.3941 92.0016C92.0367 95.6241 91.0187 98.5768 91.1214 98.5984C91.2226 98.6186 92.406 95.6996 93.7634 92.0771C94.4663 90.2038 95.0765 88.5112 95.4886 87.309C95.5 87.0085 95.6126 86.7242 95.8379 86.4937Z" fill="#754521"/>
<path d="M111.018 86.6635L116.19 98.9905L113.943 99.4178C113.943 99.4178 112.296 98.8059 111.8 97.0297C111.305 95.2535 109.781 94.0594 109.781 94.0594C109.781 94.0594 110.167 87.4546 111.018 86.6635Z" fill="#E09A01"/>
<path d="M110.796 86.6635C110.796 86.6635 110.099 95.9758 111.38 98.1401C112.661 100.304 110.606 99.5835 110.606 99.5835L107.762 99.9716L110.796 86.6635Z" fill="#FDC348"/>
<path d="M113.646 92.4827C112.541 89.9464 111.533 87.7268 110.936 86.491C111.045 85.8549 111.09 85.4884 111.051 85.4843C111.02 85.4802 110.93 85.7403 110.797 86.2094C110.559 85.7283 110.408 85.456 110.375 85.4573C110.335 85.4587 110.464 85.8374 110.718 86.4937C110.37 87.778 109.797 90.1593 109.189 92.8896C108.277 96.9918 107.629 100.331 107.745 100.345C107.86 100.358 108.694 97.0431 109.608 92.9395C110.163 90.4409 110.621 88.2268 110.867 86.8737C111.376 88.1607 112.233 90.2024 113.234 92.5002C114.926 96.3855 116.391 99.5323 116.505 99.5282C116.617 99.5229 115.338 96.3693 113.646 92.4827Z" fill="#754521"/>
<path d="M77.6045 93.9139L77.4092 94.3411C77.4092 94.3411 77.797 98.2143 79.0945 99.5067C80.392 100.798 81.5212 99.8423 81.5212 99.8423L77.6045 93.9139Z" fill="#FDC348"/>
<path d="M52.9058 97.8342L52.4453 98.6011L73.6409 100.55L77.4093 83.3658C77.4093 83.3658 64.2365 84.8509 58.3908 83.2175L52.9058 97.8342Z" fill="#E09A01"/>
<path d="M61.5406 85.4857C63.9686 84.89 66.4339 84.386 68.9218 83.9467C65.1763 84.0571 61.0344 83.9561 58.391 83.2175L57.0864 86.6945C58.5492 86.2458 60.0449 85.8522 61.5406 85.4857ZM74.9814 86.4102C70.9421 87.0098 66.9215 87.7093 63.0091 88.6688C61.1327 89.1283 59.2207 89.6392 57.5668 90.2011C56.8611 90.4423 56.1625 90.693 55.4809 90.9706L53.6802 95.771C59.1295 91.4463 66.19 88.4371 73.8906 86.8117C74.8474 86.6097 75.8097 86.4236 76.7778 86.2525L76.8006 86.1461C76.1933 86.2323 75.5859 86.3199 74.9814 86.4102ZM73.4031 90.441C71.3286 90.941 69.6903 91.4059 67.8297 92.0932C65.9333 92.794 64.1112 93.5999 62.406 94.5298C60.9916 95.3007 59.3149 96.3815 57.8976 97.4232C57.2361 97.9097 56.583 98.4043 55.97 98.9232L73.6411 100.55L75.9851 89.8655C75.1183 90.0434 74.2556 90.2348 73.4031 90.441Z" fill="#CE8E00"/>
<path d="M58.4393 83.3659C58.4236 83.3147 58.4065 83.2648 58.3908 83.2176C58.6232 82.4993 58.7359 82.0829 58.6917 82.0748C58.656 82.0667 58.5106 82.3577 58.2797 82.882C58.0871 82.3092 57.9603 81.9831 57.9218 81.9817C57.8761 81.9804 57.9603 82.4265 58.1428 83.2027C57.5268 84.6406 56.4746 87.3157 55.324 90.3884C53.5917 95.0068 52.2942 98.7722 52.424 98.7978C52.5551 98.8248 54.0637 95.1025 55.7945 90.4841C56.6899 88.0961 57.467 85.9385 57.9931 84.4062C58.0073 84.0222 58.1527 83.6583 58.4393 83.3659Z" fill="#754521"/>
<path d="M77.7941 83.5828L84.3869 99.2992L81.5212 99.8423C81.5212 99.8423 79.4224 99.0634 78.7908 96.7993C78.1577 94.5339 76.2158 93.0124 76.2158 93.0124C76.2158 93.0124 76.7076 84.5909 77.7941 83.5828Z" fill="#E09A01"/>
<path d="M77.5093 83.5828C77.5093 83.5828 76.6196 95.4543 78.255 98.2143C79.8875 100.974 77.2683 100.055 77.2683 100.055L73.6411 100.55L77.5093 83.5828Z" fill="#FDC348"/>
<path d="M81.1419 91.003C79.7332 87.7686 78.4486 84.9372 77.6872 83.3618C77.8269 82.5518 77.8839 82.0855 77.8355 82.0788C77.7942 82.0734 77.6801 82.4063 77.5105 83.0019C77.2081 82.3888 77.0157 82.0424 76.9729 82.0438C76.923 82.0464 77.0856 82.5289 77.4092 83.3658C76.9644 85.0032 76.2344 88.0395 75.4616 91.5191C74.2968 96.7521 73.4727 101.008 73.6195 101.026C73.7678 101.043 74.83 96.8168 75.9948 91.5838C76.7034 88.398 77.2851 85.576 77.6003 83.851C78.249 85.4897 79.3426 88.0934 80.6187 91.0232C82.7759 95.9785 84.6422 99.9892 84.7877 99.9838C84.9316 99.9771 83.3006 95.957 81.1419 91.003Z" fill="#754521"/>
<path d="M95.0874 99.4393C95.0874 99.7129 94.8522 99.9353 94.5641 99.9353H88.4632C88.1737 99.9353 87.9399 99.7129 87.9399 99.4393C87.9399 99.1657 88.1738 98.9447 88.4632 98.9447H94.5641C94.8522 98.9447 95.0874 99.1658 95.0874 99.4393Z" fill="#874E24"/>
<path d="M87.1189 99.3814C87.1189 99.3814 85.78 98.9784 86.031 97.1887C86.2819 95.399 85.666 95.3775 85.666 95.3775C85.666 95.3775 86.8294 96.1969 86.8979 96.6712C86.8979 96.6712 88.6088 96.6927 88.4036 95.5284C88.1982 94.364 88.723 94.7952 88.9282 95.4637C89.1336 96.1321 90.5479 96.0027 89.2248 95.0109C87.9017 94.019 87.6849 91.41 87.7249 90.1607C87.7648 88.9087 87.8561 90.1162 89.2019 91.6256C90.5479 93.135 90.5095 92.2509 89.959 90.1162C89.4073 87.9829 90.3882 86.8185 90.6392 85.3091C90.8901 83.7998 89.818 88.844 90.9357 89.0596C92.0536 89.2753 92.738 88.9087 92.738 88.3063C92.738 87.7026 92.0307 90.1809 92.5555 91.1513C93.0801 92.1215 92.9888 91.8844 93.582 90.6769C94.1751 89.4693 94.928 90.3534 94.1067 88.7794C93.2855 87.2066 93.6961 86.3657 93.6961 86.3657C93.6961 86.3657 93.6504 87.7457 94.7911 88.6513C95.9317 89.5556 97.0937 89.6634 96.1812 91.41C95.27 93.1565 95.4298 94.17 95.4982 94.17C95.5667 94.17 96.4563 94.0406 96.2511 93.0056C96.0457 91.9706 97.0252 94.6875 96.6831 95.8088C96.3408 96.93 97.1165 95.2697 97.5513 95.0756C97.9833 94.8815 97.0196 95.9165 96.9197 97.3181C96.8199 98.7196 96.0899 99.3774 95.8946 99.3369C95.6992 99.2951 87.1189 99.3814 87.1189 99.3814Z" fill="url(#paint14_linear_464_283)"/>
<path d="M94.038 98.0863C94.038 98.0863 94.1449 98.0283 94.2861 97.9043C94.3146 97.8787 94.3446 97.8505 94.3746 97.8167C94.6683 97.3787 95.0047 96.8707 94.9577 96.2791C94.9577 96.2521 94.9577 96.2252 94.9562 96.2009C94.9562 96.1659 94.9548 96.1336 94.9534 96.1012C94.9534 96.0662 94.952 96.0312 94.9492 95.9934C94.8693 95.4126 94.7353 94.9059 94.7353 94.3345C94.8037 94.5879 94.6012 94.7159 94.4002 94.6512C94.3332 95.3493 94.6012 96.1107 93.9312 96.5541C93.7302 96.6808 93.7972 96.3641 93.6517 96.2993C93.6303 96.2657 93.6047 96.2347 93.5761 96.2064C93.5861 96.1901 93.5733 96.1511 93.5505 96.1147C93.4621 95.9826 93.3267 96.174 93.2596 96.1107C93.3936 96.0473 93.5291 96.0473 93.5704 95.9597C93.5933 95.9409 93.6147 95.9192 93.6374 95.8977C93.6588 95.8775 93.6788 95.8546 93.7001 95.833C93.7315 95.8007 93.7601 95.7657 93.7886 95.7293C94.0651 95.2859 94.0651 94.7778 94.1992 94.3345C93.9982 94.3978 93.7972 94.5245 93.6261 94.4624C93.6004 94.4503 93.5719 94.4382 93.542 94.426C93.5106 94.4153 93.4793 94.4045 93.445 94.3937C93.4279 94.3627 93.408 94.3304 93.388 94.298C93.378 94.2509 93.3681 94.2023 93.3581 94.1552C93.1956 93.3816 93.1001 92.6094 93.2597 91.7981C92.5897 91.9248 92.6567 92.8763 92.1634 93.3034C92.132 93.3156 92.102 93.3236 92.0763 93.3317C92.0222 93.3479 91.9851 93.3628 91.9851 93.3843C91.9794 93.4221 91.9766 93.4611 91.9737 93.4988C91.9851 94.2077 92.3886 94.9678 92.0307 95.6375C92.0051 95.6699 91.9737 95.6996 91.9409 95.7306C91.8752 95.7898 91.7955 95.8465 91.6985 95.9003C91.6785 95.9246 91.6615 95.9556 91.6501 95.988C91.6159 96.0756 91.6115 96.1888 91.6187 96.3154C91.62 96.3572 91.6229 96.4003 91.6272 96.4448C91.6501 96.6173 91.6501 96.8074 91.6415 97.0028C91.6344 97.0499 91.6272 97.0971 91.6159 97.1415C91.6045 97.186 91.5902 97.2291 91.5731 97.2723C91.5431 97.3006 91.5118 97.3289 91.4804 97.3572C91.4476 97.3868 91.4162 97.4138 91.382 97.4421C91.181 97.6321 91.382 97.8855 91.3064 98.0943C91.3036 98.128 91.3036 98.1604 91.3093 98.1901C91.3278 98.3127 91.4091 98.4084 91.5759 98.4676C92.0733 98.6469 94.038 98.0863 94.038 98.0863Z" fill="url(#paint15_linear_464_283)"/>
<path d="M86.6443 100.036C86.6985 100.28 86.9281 100.437 87.1576 100.385L96.0759 98.3882C96.3054 98.3369 96.448 98.0971 96.3938 97.8531C96.3396 97.6092 96.1101 97.4529 95.8805 97.5041L86.9622 99.5012C86.7327 99.5525 86.5901 99.7924 86.6443 100.036Z" fill="#874E24"/>
<path opacity="0.5" d="M91.6226 98.5148C91.9377 98.4905 92.2528 98.4811 92.568 98.4609C92.7106 98.4528 92.8517 98.4434 92.9928 98.4313C93.2324 98.4083 93.2766 98.4043 93.1226 98.4177C93.2994 98.3854 93.4848 98.3558 93.6587 98.3059C93.9381 98.1765 94.2233 98.0498 94.5156 97.9528C95.1044 97.7574 95.8316 97.7264 96.4005 98.0067C96.4062 97.9569 96.4047 97.9056 96.3933 97.8531C96.3392 97.6092 96.1096 97.4528 95.88 97.504L91.2148 98.5485C91.3503 98.5377 91.4872 98.5256 91.6226 98.5148Z" fill="url(#paint16_linear_464_283)"/>
<path opacity="0.5" d="M87.9674 99.314C87.9774 99.2991 87.9888 99.2843 87.9988 99.2695L86.9623 99.5013C86.7327 99.5526 86.5901 99.7924 86.6443 100.036C86.6985 100.28 86.9281 100.437 87.1576 100.385L87.7222 100.259C87.7179 99.9205 87.7992 99.5862 87.9674 99.314Z" fill="url(#paint17_linear_464_283)"/>
<path d="M86.6328 99.9353C86.6328 100.189 86.8381 100.395 87.0905 100.395C87.3429 100.395 87.5468 100.189 87.5468 99.9353C87.5468 99.6805 87.3429 99.4744 87.0905 99.4744C86.8381 99.4744 86.6328 99.6805 86.6328 99.9353Z" fill="#B29976"/>
<path d="M88.9282 98.5108L89.6255 98.9447L88.9611 99.0849L91.5888 99.4744L92.0465 99.3747L88.9282 98.5108Z" fill="#030313"/>
<path d="M97.0165 100.036C96.9994 100.108 96.9652 100.174 96.9195 100.228C96.8126 100.356 96.6414 100.42 96.4704 100.385L86.9833 98.3882C86.738 98.3369 86.5869 98.0971 86.6439 97.8532C86.6738 97.7278 86.7536 97.624 86.8577 97.5621C86.929 97.5189 87.0117 97.4946 87.0959 97.4946C87.1272 97.4946 87.1585 97.4974 87.1914 97.5041L96.6785 99.5013C96.9223 99.5512 97.0735 99.7924 97.0165 100.036Z" fill="#7D6B44"/>
<path d="M96.9195 100.228C96.8126 100.356 96.6414 100.42 96.4704 100.385L86.9833 98.3882C86.738 98.3369 86.5869 98.0971 86.6439 97.8531C86.6738 97.7278 86.7536 97.624 86.8577 97.562C86.8663 97.5634 86.8748 97.5661 86.8848 97.5674L96.6344 100.009C96.7613 100.042 96.861 100.123 96.9195 100.228Z" fill="#874E24"/>
<path d="M97.0295 99.9353C97.0295 100.189 96.8113 100.395 96.5418 100.395C96.2738 100.395 96.0557 100.189 96.0557 99.9353C96.0557 99.6805 96.2738 99.4744 96.5418 99.4744C96.8113 99.4744 97.0295 99.6805 97.0295 99.9353Z" fill="#B29976"/>
<path d="M89.7422 100.244L89.9475 100.193L91.7055 99.3813L89.6353 99.8409L89.7422 100.244Z" fill="#604029"/>
<path d="M89.959 100.117C89.959 100.271 89.8279 100.395 89.6653 100.395C89.5042 100.395 89.373 100.271 89.373 100.117C89.373 99.9649 89.5042 99.8409 89.6653 99.8409C89.8279 99.8409 89.959 99.9649 89.959 100.117Z" fill="#B29976"/>
<path d="M93.6674 100.244L93.4621 100.193L91.7056 99.3813L93.7744 99.8409L93.6674 100.244Z" fill="#604029"/>
<path d="M93.4507 100.117C93.4507 100.271 93.5818 100.395 93.743 100.395C93.9055 100.395 94.0367 100.271 94.0367 100.117C94.0367 99.9649 93.9055 99.8409 93.743 99.8409C93.5818 99.8409 93.4507 99.9649 93.4507 100.117Z" fill="#B29976"/>
<path d="M88.5732 97.837C88.5732 97.837 87.2287 97.1133 87.1218 95.391C87.0134 93.6701 87.4782 93.7886 87.531 92.8439C87.5852 91.8992 88.04 93.2159 87.9873 94.1767C87.9331 95.1389 88.9767 96.9866 89.768 96.3532C90.5565 95.7211 88.8698 95.4422 89.2448 93.418C89.6198 91.3925 90.2885 90.5327 89.768 88.1028C89.768 88.1028 92.3501 90.7604 91.6273 92.0515C90.9044 93.3411 91.4404 95.4934 92.1634 96.43C92.8862 97.3652 93.2997 98.1604 92.5041 98.4461C91.7085 98.7318 88.5732 97.837 88.5732 97.837Z" fill="url(#paint18_linear_464_283)"/>
<path d="M90.6404 87.9708C90.6205 88.053 90.6162 88.1352 90.6162 88.2187C90.6162 88.2753 90.7075 88.2753 90.7075 88.2187C90.7075 88.1433 90.7103 88.0678 90.7289 87.9937C90.7417 87.9398 90.6548 87.9168 90.6404 87.9708Z" fill="url(#paint19_linear_464_283)"/>
<path d="M90.8615 87.4856C90.8401 87.4465 90.8287 87.4128 90.8429 87.3684C90.8587 87.3145 90.7702 87.2916 90.7545 87.3455C90.7345 87.4128 90.7502 87.4681 90.7816 87.53C90.8087 87.58 90.8871 87.5355 90.8615 87.4856Z" fill="url(#paint20_linear_464_283)"/>
<path d="M91.2252 88.4343C91.2066 88.3952 91.2094 88.3481 91.2094 88.3063C91.2094 88.2497 91.1182 88.2497 91.1182 88.3063C91.1182 88.3656 91.121 88.4236 91.1467 88.4788C91.171 88.5287 91.2494 88.4855 91.2252 88.4343Z" fill="url(#paint21_linear_464_283)"/>
<path d="M91.573 87.6905C91.5558 87.6379 91.4676 87.6595 91.4846 87.7134C91.506 87.7794 91.506 87.8495 91.506 87.9182C91.506 87.9735 91.5973 87.9735 91.5973 87.9182C91.5973 87.8414 91.5958 87.7632 91.573 87.6905Z" fill="url(#paint22_linear_464_283)"/>
<path d="M92.0308 88.0907V88.2848C92.0308 88.3401 92.122 88.3401 92.122 88.2848V88.0907C92.122 88.0341 92.0308 88.0341 92.0308 88.0907Z" fill="url(#paint23_linear_464_283)"/>
<path d="M89.2774 90.03H89.2474C89.189 90.03 89.189 90.115 89.2474 90.115H89.2774C89.3373 90.115 89.3373 90.03 89.2774 90.03Z" fill="url(#paint24_linear_464_283)"/>
<path d="M89.1264 90.4613C89.0666 90.4613 89.0666 90.5475 89.1264 90.5475C89.1849 90.5475 89.1849 90.4613 89.1264 90.4613Z" fill="url(#paint25_linear_464_283)"/>
<path d="M88.8039 89.7173C88.7811 89.6458 88.7754 89.5731 88.7754 89.499C88.7754 89.4437 88.6855 89.4437 88.6855 89.499C88.6855 89.5812 88.6912 89.662 88.7169 89.7402C88.734 89.7928 88.8225 89.7699 88.8039 89.7173Z" fill="url(#paint26_linear_464_283)"/>
<path d="M92.9276 89.4559C92.8692 89.4559 92.8692 89.5409 92.9276 89.5409C92.9875 89.5409 92.9875 89.4559 92.9276 89.4559Z" fill="url(#paint27_linear_464_283)"/>
<path d="M93.0488 89.945C92.9903 89.945 92.9903 90.0288 93.0488 90.0288C93.1086 90.0288 93.1086 89.945 93.0488 89.945Z" fill="url(#paint28_linear_464_283)"/>
<path d="M96.2123 92.3884C96.1538 92.3884 96.1538 92.4734 96.2123 92.4734C96.2707 92.4734 96.2707 92.3884 96.2123 92.3884Z" fill="url(#paint29_linear_464_283)"/>
<path d="M96.79 92.7617C96.7315 92.7617 96.7315 92.8467 96.79 92.8467C96.8484 92.8467 96.8484 92.7617 96.79 92.7617Z" fill="url(#paint30_linear_464_283)"/>
<path d="M97.5599 93.9908C97.5243 93.9274 97.4773 93.8857 97.3989 93.883C97.3404 93.8803 97.3404 93.9666 97.3989 93.9692C97.443 93.9705 97.4615 93.9988 97.4801 94.0339C97.5071 94.0838 97.587 94.0392 97.5599 93.9908Z" fill="url(#paint31_linear_464_283)"/>
<path d="M98.2201 96.2117C98.1616 96.2117 98.1616 96.2967 98.2201 96.2967C98.2785 96.2967 98.2785 96.2117 98.2201 96.2117Z" fill="url(#paint32_linear_464_283)"/>
<path d="M86.8895 95.1794C86.8581 95.0608 86.8324 94.9395 86.8295 94.8169C86.8295 94.7616 86.7383 94.7616 86.7383 94.8169C86.7412 94.9476 86.7683 95.0756 86.8011 95.2023C86.8153 95.2562 86.9037 95.2333 86.8895 95.1794Z" fill="url(#paint33_linear_464_283)"/>
<path d="M86.6014 93.9975C86.543 93.9975 86.543 94.0825 86.6014 94.0825C86.6599 94.0825 86.6599 93.9975 86.6014 93.9975Z" fill="url(#paint34_linear_464_283)"/>
<path d="M86.5101 95.1188C86.4517 95.1188 86.4517 95.2038 86.5101 95.2038C86.57 95.2038 86.57 95.1188 86.5101 95.1188Z" fill="url(#paint35_linear_464_283)"/>
<path d="M86.8748 95.837C86.8165 95.837 86.8165 95.9234 86.8748 95.9234C86.9333 95.9234 86.9333 95.837 86.8748 95.837Z" fill="url(#paint36_linear_464_283)"/>
<path d="M86.8154 93.8547C86.7555 93.8547 86.7555 93.9383 86.8154 93.9383C86.8738 93.9383 86.8738 93.8547 86.8154 93.8547Z" fill="url(#paint37_linear_464_283)"/>
<path d="M85.9941 94.8034C85.9343 94.8034 85.9343 94.8871 85.9941 94.8871C86.0526 94.8871 86.0526 94.8034 85.9941 94.8034Z" fill="url(#paint38_linear_464_283)"/>
<path d="M88.1825 94.4868C88.124 94.4868 88.124 94.5717 88.1825 94.5717C88.2424 94.5717 88.2424 94.4868 88.1825 94.4868Z" fill="url(#paint39_linear_464_283)"/>
<path d="M88.1527 93.9975C88.0943 93.9975 88.0943 94.0825 88.1527 94.0825C88.2112 94.0825 88.2112 93.9975 88.1527 93.9975Z" fill="url(#paint40_linear_464_283)"/>
<path d="M89.3091 95.4355C89.2492 95.4355 89.2492 95.5205 89.3091 95.5205C89.3675 95.5205 89.3675 95.4355 89.3091 95.4355Z" fill="url(#paint41_linear_464_283)"/>
<path d="M92.9276 90.9222C92.8692 90.9222 92.8692 91.0071 92.9276 91.0071C92.9875 91.0071 92.9875 90.9222 92.9276 90.9222Z" fill="url(#paint42_linear_464_283)"/>
<path d="M92.8661 90.1742C92.8076 90.1742 92.8076 90.2592 92.8661 90.2592C92.926 90.2592 92.926 90.1742 92.8661 90.1742Z" fill="url(#paint43_linear_464_283)"/>
<path d="M96.6215 92.1027C96.6057 92.0622 96.5887 92.0164 96.5473 91.9935C96.5031 91.9679 96.456 91.9975 96.4233 92.0272C96.3805 92.0649 96.4447 92.1256 96.4874 92.0878C96.4975 92.0797 96.5117 92.0744 96.5045 92.069C96.5202 92.0811 96.5273 92.1081 96.533 92.1256C96.5516 92.1782 96.64 92.1553 96.6215 92.1027Z" fill="url(#paint44_linear_464_283)"/>
<path d="M96.9139 92.5447C96.9068 92.5366 96.8982 92.5272 96.8968 92.5178C96.8897 92.4625 96.7984 92.4625 96.8056 92.5178C96.8098 92.5515 96.8241 92.5798 96.8483 92.6053C96.8897 92.6458 96.9538 92.5838 96.9139 92.5447Z" fill="url(#paint45_linear_464_283)"/>
<path d="M97.0181 92.7751V92.9773C97.0181 93.0325 97.1093 93.0325 97.1093 92.9773V92.7751C97.1093 92.7213 97.0181 92.7213 97.0181 92.7751Z" fill="url(#paint46_linear_464_283)"/>
<path d="M97.0778 94.2589C97.0507 94.1498 97.0492 94.0379 97.0492 93.9261C97.0492 93.8694 96.958 93.8694 96.958 93.9261C96.958 94.046 96.9609 94.1646 96.9894 94.2818C97.0022 94.3358 97.0906 94.3128 97.0778 94.2589Z" fill="url(#paint47_linear_464_283)"/>
<path d="M97.5815 97.0742C97.523 97.0742 97.523 97.1592 97.5815 97.1592C97.6399 97.1592 97.6399 97.0742 97.5815 97.0742Z" fill="url(#paint48_linear_464_283)"/>
<path d="M97.1123 97.939C97.068 97.9575 97.0709 98.0279 97.1251 98.0213C97.1678 98.016 97.1992 97.9935 97.2007 97.9496C97.2035 97.8991 97.1265 97.8965 97.1123 97.939Z" fill="url(#paint49_linear_464_283)"/>
<path d="M96.9726 98.5405C96.9141 98.5405 96.9141 98.6255 96.9726 98.6255C97.0324 98.6255 97.0324 98.5405 96.9726 98.5405Z" fill="url(#paint50_linear_464_283)"/>
<path d="M97.3373 96.643C97.2788 96.643 97.2788 96.728 97.3373 96.728C97.3957 96.728 97.3957 96.643 97.3373 96.643Z" fill="url(#paint51_linear_464_283)"/>
<g opacity="0.2">
<path opacity="0.2" d="M46.7439 40.5265C46.7439 41.0588 46.2876 41.4915 45.723 41.4915C45.1585 41.4915 44.7022 41.0588 44.7022 40.5265C44.7022 39.9929 45.1585 39.5616 45.723 39.5616C46.2876 39.5616 46.7439 39.9929 46.7439 40.5265ZM67.9994 46.7662C67.9994 47.6651 67.2295 48.3942 66.2771 48.3942C65.3247 48.3942 64.5548 47.6651 64.5548 46.7662C64.5548 45.8673 65.3247 45.1382 66.2771 45.1382C67.2295 45.1382 67.9994 45.8673 67.9994 46.7662ZM50.3682 62.3343C50.3682 63.2669 49.5683 64.0229 48.5817 64.0229C47.595 64.0229 46.7951 63.2669 46.7951 62.3343C46.7951 61.4004 47.595 60.6443 48.5817 60.6443C49.5684 60.6443 50.3682 61.4004 50.3682 62.3343ZM104.049 47.0236C104.049 47.5559 103.591 47.9885 103.028 47.9885C102.465 47.9885 102.007 47.5559 102.007 47.0236C102.007 46.4899 102.465 46.0587 103.028 46.0587C103.591 46.0587 104.049 46.4899 104.049 47.0236ZM113.882 63.1065C113.882 63.6388 113.426 64.0714 112.862 64.0714C112.298 64.0714 111.841 63.6388 111.841 63.1065C111.841 62.5728 112.298 62.1415 112.862 62.1415C113.426 62.1416 113.882 62.5728 113.882 63.1065ZM107.776 53.9963C107.776 54.8966 107.005 55.6243 106.054 55.6243C105.101 55.6243 104.33 54.8966 104.33 53.9963C104.33 53.0961 105.101 52.3684 106.054 52.3684C107.005 52.3684 107.776 53.0961 107.776 53.9963ZM20.8131 54.2928C20.8131 54.8265 20.3569 55.2578 19.7923 55.2578C19.2291 55.2578 18.7715 54.8265 18.7715 54.2928C18.7715 53.7592 19.2291 53.3279 19.7923 53.3279C20.3569 53.3279 20.8131 53.7592 20.8131 54.2928ZM31.2942 44.4307C31.2942 44.963 30.8379 45.3956 30.2732 45.3956C29.71 45.3956 29.2524 44.963 29.2524 44.4307C29.2524 43.897 29.7101 43.4658 30.2732 43.4658C30.8379 43.4658 31.2942 43.897 31.2942 44.4307ZM79.4114 68.1871C79.4114 68.7208 78.9551 69.1521 78.3905 69.1521C77.8273 69.1521 77.3697 68.7208 77.3697 68.1871C77.3697 67.6549 77.8273 67.2222 78.3905 67.2222C78.9551 67.2222 79.4114 67.6549 79.4114 68.1871ZM95.6097 64.0229C95.6097 64.5553 95.152 64.9878 94.5888 64.9878C94.0257 64.9878 93.568 64.5553 93.568 64.0229C93.568 63.4892 94.0257 63.0579 94.5888 63.0579C95.152 63.0579 95.6097 63.4892 95.6097 64.0229Z" fill="white"/>
</g>
<path d="M59.9849 35.024C57.5911 35.024 55.6505 36.7962 55.6505 38.9808C55.6505 36.7962 53.71 35.024 51.3147 35.024C53.71 35.024 55.6505 33.2505 55.6505 31.0647C55.6506 33.2505 57.5911 35.024 59.9849 35.024ZM41.4897 71.8649C39.7174 71.8649 38.2803 73.1762 38.2803 74.7947C38.2803 73.1762 36.8446 71.8649 35.0723 71.8649C36.8446 71.8649 38.2803 70.5536 38.2803 68.9365C38.2803 70.5536 39.7174 71.8649 41.4897 71.8649ZM77.0273 71.1695C75.8068 71.1695 74.8188 72.0711 74.8188 73.1842C74.8188 72.0711 73.8292 71.1695 72.6102 71.1695C73.8293 71.1695 74.8188 70.2653 74.8188 69.1521C74.8188 70.2653 75.8068 71.1695 77.0273 71.1695ZM101.83 68.7343C100.613 68.7343 99.6245 69.6358 99.6245 70.749C99.6245 69.6358 98.635 68.7343 97.4145 68.7343C98.635 68.7343 99.6245 67.83 99.6245 66.7169C99.6245 67.8301 100.613 68.7343 101.83 68.7343ZM97.5215 35.1898C96.435 35.1898 95.5525 35.9943 95.5525 36.9889C95.5525 35.9943 94.6699 35.1898 93.5849 35.1898C94.6699 35.1898 95.5525 34.3853 95.5525 33.392C95.5525 34.3853 96.435 35.1898 97.5215 35.1898Z" fill="white"/>
<path d="M66.746 59.9611C66.746 60.0002 66.7503 60.0352 66.7503 60.0703H66.6576C66.4609 60.2859 66.1986 60.4409 65.8949 60.5015V60.5298C65.8949 61.6214 64.961 62.5041 63.8033 62.5041C63.7248 62.5041 63.6464 62.5014 63.5737 62.4946C62.962 63.8302 61.552 64.7668 59.9108 64.7668C58.9741 64.7668 58.1087 64.4609 57.4315 63.9474C56.4605 65.9595 54.3147 67.3597 51.8253 67.3597C49.0264 67.3597 46.6697 65.5956 45.9182 63.1819C44.3385 63.0283 43.0809 61.872 42.8514 60.3977C42.8372 60.3021 42.8271 60.2023 42.82 60.1039H42.8086L42.82 60.0932C42.8172 60.0352 42.8086 59.9813 42.8086 59.922H42.9569C43.2549 59.5918 43.6613 59.3547 44.1317 59.2617C44.1289 59.2482 44.1289 59.2334 44.1289 59.2172C44.1289 57.5313 45.5747 56.162 47.3598 56.162C47.4852 56.162 47.6021 56.1742 47.7219 56.1822C48.6672 54.115 50.8458 52.6675 53.3779 52.6675C55.7034 52.6675 57.7194 53.8858 58.7631 55.6849C58.7916 55.7267 58.8158 55.7671 58.8401 55.813C59.4447 55.464 60.1547 55.2578 60.916 55.2578C62.7268 55.2578 64.2509 56.4019 64.7372 57.9625C65.8265 58.0676 66.6862 58.9112 66.7461 59.9543H66.7504C66.7503 59.9584 66.746 59.9611 66.746 59.9611Z" fill="url(#paint52_linear_464_283)"/>
<path d="M58.7631 55.6852C58.4081 55.9493 57.9618 56.1056 57.4741 56.1056C57.3944 56.1056 57.3145 56.1029 57.2404 56.0935C56.6287 57.4317 55.2186 58.3697 53.579 58.3697C52.6422 58.3697 51.7797 58.0611 51.0981 57.5476C50.1257 59.5596 47.9841 60.9599 45.4919 60.9599C44.5452 60.9599 43.6527 60.7564 42.8514 60.3979C42.8372 60.3023 42.8271 60.2025 42.82 60.1041H42.8086L42.82 60.0934C42.8172 60.0354 42.8086 59.9815 42.8086 59.9222H42.9569C43.2549 59.592 43.6613 59.3549 44.1317 59.2619C44.1289 59.2484 44.1289 59.2336 44.1289 59.2174C44.1289 57.5315 45.5747 56.1623 47.3598 56.1623C47.4852 56.1623 47.6021 56.1744 47.7219 56.1825C48.6672 54.1152 50.8458 52.6677 53.3779 52.6677C55.7034 52.6677 57.7195 53.886 58.7631 55.6852Z" fill="url(#paint53_linear_464_283)"/>
<defs>
<linearGradient id="paint0_linear_464_283" x1="15.519" y1="98.44" x2="130.481" y2="98.44" gradientUnits="userSpaceOnUse">
<stop offset="0.213" stop-color="#F9EDAB"/>
<stop offset="1" stop-color="#F9ED97"/>
</linearGradient>
<linearGradient id="paint1_linear_464_283" x1="48.3668" y1="80.4354" x2="48.3668" y2="118.333" gradientUnits="userSpaceOnUse">
<stop stop-color="#B0E572"/>
<stop offset="0.543" stop-color="#619247"/>
</linearGradient>
<linearGradient id="paint2_linear_464_283" x1="84.3152" y1="66.8535" x2="84.3152" y2="133.824" gradientUnits="userSpaceOnUse">
<stop stop-color="#B0E572"/>
<stop offset="0.543" stop-color="#619247"/>
</linearGradient>
<linearGradient id="paint3_linear_464_283" x1="21.6816" y1="78.6133" x2="31.5822" y2="78.6133" gradientUnits="userSpaceOnUse">
<stop stop-color="#B0E572"/>
<stop offset="0.543" stop-color="#619247"/>
<stop offset="1" stop-color="#B0E572"/>
</linearGradient>
<linearGradient id="paint4_linear_464_283" x1="27.2793" y1="78.488" x2="28.2616" y2="78.488" gradientUnits="userSpaceOnUse">
<stop stop-color="#B0E572"/>
<stop offset="0.543" stop-color="#619247"/>
<stop offset="1" stop-color="#B0E572"/>
</linearGradient>
<linearGradient id="paint5_linear_464_283" x1="20.7363" y1="73.0428" x2="32.5247" y2="73.0428" gradientUnits="userSpaceOnUse">
<stop stop-color="#B0E572"/>
<stop offset="0.543" stop-color="#619247"/>
<stop offset="1" stop-color="#B0E572"/>
</linearGradient>
<linearGradient id="paint6_linear_464_283" x1="14.4115" y1="79.6766" x2="69.3917" y2="79.6766" gradientUnits="userSpaceOnUse">
<stop stop-color="#B0E572"/>
<stop offset="0.543" stop-color="#619247"/>
<stop offset="1" stop-color="#B0E572"/>
</linearGradient>
<linearGradient id="paint7_linear_464_283" x1="22.4347" y1="79.2784" x2="35.3802" y2="79.2784" gradientUnits="userSpaceOnUse">
<stop stop-color="#B0E572"/>
<stop offset="0.543" stop-color="#619247"/>
<stop offset="1" stop-color="#B0E572"/>
</linearGradient>
<linearGradient id="paint8_linear_464_283" x1="11.6657" y1="78.8795" x2="66.6614" y2="78.8795" gradientUnits="userSpaceOnUse">
<stop stop-color="#B0E572"/>
<stop offset="0.543" stop-color="#619247"/>
<stop offset="1" stop-color="#B0E572"/>
</linearGradient>
<linearGradient id="paint9_linear_464_283" x1="25.4824" y1="100.288" x2="26.1682" y2="94.1779" gradientUnits="userSpaceOnUse">
<stop offset="0.378" stop-color="#7C8795"/>
<stop offset="0.995" stop-color="#BCBEC0"/>
</linearGradient>
<linearGradient id="paint10_linear_464_283" x1="30.2988" y1="99.0856" x2="27.6847" y2="96.7673" gradientUnits="userSpaceOnUse">
<stop offset="0.378" stop-color="#7C8795"/>
<stop offset="0.995" stop-color="#BCBEC0"/>
</linearGradient>
<linearGradient id="paint11_linear_464_283" x1="30.2231" y1="97.9272" x2="35.872" y2="97.9272" gradientUnits="userSpaceOnUse">
<stop offset="0.378" stop-color="#7C8795"/>
<stop offset="0.995" stop-color="#BCBEC0"/>
</linearGradient>
<linearGradient id="paint12_linear_464_283" x1="87.4428" y1="82.4092" x2="87.4428" y2="116.082" gradientUnits="userSpaceOnUse">
<stop stop-color="#B0E572"/>
<stop offset="0.543" stop-color="#619247"/>
</linearGradient>
<linearGradient id="paint13_linear_464_283" x1="58.4601" y1="87.9243" x2="58.4601" y2="109.792" gradientUnits="userSpaceOnUse">
<stop stop-color="#B0E572"/>
<stop offset="0.543" stop-color="#619247"/>
</linearGradient>
<linearGradient id="paint14_linear_464_283" x1="85.666" y1="92.2046" x2="97.662" y2="92.2046" gradientUnits="userSpaceOnUse">
<stop offset="0.16" stop-color="#FF8E02"/>
<stop offset="0.957" stop-color="#F9ED32"/>
</linearGradient>
<linearGradient id="paint15_linear_464_283" x1="94.1729" y1="94.0799" x2="90.8873" y2="99.695" gradientUnits="userSpaceOnUse">
<stop offset="0.16" stop-color="#FF8E02"/>
<stop offset="0.5" stop-color="#F9ED32"/>
<stop offset="0.979" stop-color="#F9ED79"/>
</linearGradient>
<linearGradient id="paint16_linear_464_283" x1="91.2148" y1="98.0214" x2="96.4037" y2="98.0214" gradientUnits="userSpaceOnUse">
<stop offset="0.16" stop-color="#FF8E02"/>
<stop offset="0.5" stop-color="#F9ED32"/>
<stop offset="0.979" stop-color="#F9ED79"/>
</linearGradient>
<linearGradient id="paint17_linear_464_283" x1="86.6328" y1="99.8323" x2="87.9988" y2="99.8323" gradientUnits="userSpaceOnUse">
<stop offset="0.16" stop-color="#FF8E02"/>
<stop offset="0.5" stop-color="#F9ED32"/>
<stop offset="0.979" stop-color="#F9ED79"/>
</linearGradient>
<linearGradient id="paint18_linear_464_283" x1="88.279" y1="91.7005" x2="93.4057" y2="100.462" gradientUnits="userSpaceOnUse">
<stop offset="0.16" stop-color="#FF8E02"/>
<stop offset="0.5" stop-color="#F9ED32"/>
<stop offset="0.979" stop-color="#F9ED79"/>
</linearGradient>
<linearGradient id="paint19_linear_464_283" x1="90.5953" y1="87.9829" x2="90.7373" y2="88.2254" gradientUnits="userSpaceOnUse">
<stop offset="0.16" stop-color="#FF8E02"/>
<stop offset="0.5" stop-color="#F9ED32"/>
<stop offset="0.979" stop-color="#F9ED79"/>
</linearGradient>
<linearGradient id="paint20_linear_464_283" x1="90.7468" y1="87.3362" x2="90.862" y2="87.5332" gradientUnits="userSpaceOnUse">
<stop offset="0.16" stop-color="#FF8E02"/>
<stop offset="0.5" stop-color="#F9ED32"/>
<stop offset="0.979" stop-color="#F9ED79"/>
</linearGradient>
<linearGradient id="paint21_linear_464_283" x1="91.1122" y1="88.2857" x2="91.2266" y2="88.4813" gradientUnits="userSpaceOnUse">
<stop offset="0.16" stop-color="#FF8E02"/>
<stop offset="0.5" stop-color="#F9ED32"/>
<stop offset="0.979" stop-color="#F9ED79"/>
</linearGradient>
<linearGradient id="paint22_linear_464_283" x1="91.4621" y1="87.691" x2="91.6057" y2="87.9365" gradientUnits="userSpaceOnUse">
<stop offset="0.16" stop-color="#FF8E02"/>
<stop offset="0.5" stop-color="#F9ED32"/>
<stop offset="0.979" stop-color="#F9ED79"/>
</linearGradient>
<linearGradient id="paint23_linear_464_283" x1="92.0065" y1="88.0808" x2="92.1351" y2="88.3005" gradientUnits="userSpaceOnUse">
<stop offset="0.16" stop-color="#FF8E02"/>
<stop offset="0.5" stop-color="#F9ED32"/>
<stop offset="0.979" stop-color="#F9ED79"/>
</linearGradient>
<linearGradient id="paint24_linear_464_283" x1="89.2345" y1="90.0297" x2="89.2856" y2="90.1184" gradientUnits="userSpaceOnUse">
<stop offset="0.16" stop-color="#FF8E02"/>
<stop offset="0.5" stop-color="#F9ED32"/>
<stop offset="0.979" stop-color="#F9ED79"/>
</linearGradient>
<linearGradient id="paint25_linear_464_283" x1="89.1015" y1="90.4676" x2="89.1456" y2="90.5441" gradientUnits="userSpaceOnUse">
<stop offset="0.16" stop-color="#FF8E02"/>
<stop offset="0.5" stop-color="#F9ED32"/>
<stop offset="0.979" stop-color="#F9ED79"/>
</linearGradient>
<linearGradient id="paint26_linear_464_283" x1="88.6635" y1="89.4885" x2="88.8146" y2="89.7466" gradientUnits="userSpaceOnUse">
<stop offset="0.16" stop-color="#FF8E02"/>
<stop offset="0.5" stop-color="#F9ED32"/>
<stop offset="0.979" stop-color="#F9ED79"/>
</linearGradient>
<linearGradient id="paint27_linear_464_283" x1="92.9038" y1="89.4619" x2="92.9475" y2="89.5376" gradientUnits="userSpaceOnUse">
<stop offset="0.16" stop-color="#FF8E02"/>
<stop offset="0.5" stop-color="#F9ED32"/>
<stop offset="0.979" stop-color="#F9ED79"/>
</linearGradient>
<linearGradient id="paint28_linear_464_283" x1="93.0252" y1="89.9508" x2="93.0684" y2="90.0256" gradientUnits="userSpaceOnUse">
<stop offset="0.16" stop-color="#FF8E02"/>
<stop offset="0.5" stop-color="#F9ED32"/>
<stop offset="0.979" stop-color="#F9ED79"/>
</linearGradient>
<linearGradient id="paint29_linear_464_283" x1="96.1881" y1="92.3946" x2="96.2317" y2="92.47" gradientUnits="userSpaceOnUse">
<stop offset="0.16" stop-color="#FF8E02"/>
<stop offset="0.5" stop-color="#F9ED32"/>
<stop offset="0.979" stop-color="#F9ED79"/>
</linearGradient>
<linearGradient id="paint30_linear_464_283" x1="96.7658" y1="92.7679" x2="96.8093" y2="92.8433" gradientUnits="userSpaceOnUse">
<stop offset="0.16" stop-color="#FF8E02"/>
<stop offset="0.5" stop-color="#F9ED32"/>
<stop offset="0.979" stop-color="#F9ED79"/>
</linearGradient>
<linearGradient id="paint31_linear_464_283" x1="97.3987" y1="93.8741" x2="97.5111" y2="94.0663" gradientUnits="userSpaceOnUse">
<stop offset="0.16" stop-color="#FF8E02"/>
<stop offset="0.5" stop-color="#F9ED32"/>
<stop offset="0.979" stop-color="#F9ED79"/>
</linearGradient>
<linearGradient id="paint32_linear_464_283" x1="98.196" y1="96.2179" x2="98.2395" y2="96.2933" gradientUnits="userSpaceOnUse">
<stop offset="0.16" stop-color="#FF8E02"/>
<stop offset="0.5" stop-color="#F9ED32"/>
<stop offset="0.979" stop-color="#F9ED79"/>
</linearGradient>
<linearGradient id="paint33_linear_464_283" x1="86.6937" y1="94.8197" x2="86.9155" y2="95.1988" gradientUnits="userSpaceOnUse">
<stop offset="0.16" stop-color="#FF8E02"/>
<stop offset="0.5" stop-color="#F9ED32"/>
<stop offset="0.979" stop-color="#F9ED79"/>
</linearGradient>
<linearGradient id="paint34_linear_464_283" x1="86.5773" y1="94.0037" x2="86.6207" y2="94.0791" gradientUnits="userSpaceOnUse">
<stop offset="0.16" stop-color="#FF8E02"/>
<stop offset="0.5" stop-color="#F9ED32"/>
<stop offset="0.979" stop-color="#F9ED79"/>
</linearGradient>
<linearGradient id="paint35_linear_464_283" x1="86.4863" y1="95.1248" x2="86.5299" y2="95.2004" gradientUnits="userSpaceOnUse">
<stop offset="0.16" stop-color="#FF8E02"/>
<stop offset="0.5" stop-color="#F9ED32"/>
<stop offset="0.979" stop-color="#F9ED79"/>
</linearGradient>
<linearGradient id="paint36_linear_464_283" x1="86.8504" y1="95.8434" x2="86.8944" y2="95.9198" gradientUnits="userSpaceOnUse">
<stop offset="0.16" stop-color="#FF8E02"/>
<stop offset="0.5" stop-color="#F9ED32"/>
<stop offset="0.979" stop-color="#F9ED79"/>
</linearGradient>
<linearGradient id="paint37_linear_464_283" x1="86.791" y1="93.8605" x2="86.8342" y2="93.9353" gradientUnits="userSpaceOnUse">
<stop offset="0.16" stop-color="#FF8E02"/>
<stop offset="0.5" stop-color="#F9ED32"/>
<stop offset="0.979" stop-color="#F9ED79"/>
</linearGradient>
<linearGradient id="paint38_linear_464_283" x1="85.9697" y1="94.8093" x2="86.0129" y2="94.8841" gradientUnits="userSpaceOnUse">
<stop offset="0.16" stop-color="#FF8E02"/>
<stop offset="0.5" stop-color="#F9ED32"/>
<stop offset="0.979" stop-color="#F9ED79"/>
</linearGradient>
<linearGradient id="paint39_linear_464_283" x1="88.1587" y1="94.4927" x2="88.2023" y2="94.5684" gradientUnits="userSpaceOnUse">
<stop offset="0.16" stop-color="#FF8E02"/>
<stop offset="0.5" stop-color="#F9ED32"/>
<stop offset="0.979" stop-color="#F9ED79"/>
</linearGradient>
<linearGradient id="paint40_linear_464_283" x1="88.1286" y1="94.0037" x2="88.172" y2="94.0791" gradientUnits="userSpaceOnUse">
<stop offset="0.16" stop-color="#FF8E02"/>
<stop offset="0.5" stop-color="#F9ED32"/>
<stop offset="0.979" stop-color="#F9ED79"/>
</linearGradient>
<linearGradient id="paint41_linear_464_283" x1="89.2844" y1="95.4416" x2="89.3281" y2="95.5173" gradientUnits="userSpaceOnUse">
<stop offset="0.16" stop-color="#FF8E02"/>
<stop offset="0.5" stop-color="#F9ED32"/>
<stop offset="0.979" stop-color="#F9ED79"/>
</linearGradient>
<linearGradient id="paint42_linear_464_283" x1="92.9038" y1="90.9282" x2="92.9475" y2="91.0038" gradientUnits="userSpaceOnUse">
<stop offset="0.16" stop-color="#FF8E02"/>
<stop offset="0.5" stop-color="#F9ED32"/>
<stop offset="0.979" stop-color="#F9ED79"/>
</linearGradient>
<linearGradient id="paint43_linear_464_283" x1="92.8423" y1="90.1802" x2="92.8859" y2="90.2559" gradientUnits="userSpaceOnUse">
<stop offset="0.16" stop-color="#FF8E02"/>
<stop offset="0.5" stop-color="#F9ED32"/>
<stop offset="0.979" stop-color="#F9ED79"/>
</linearGradient>
<linearGradient id="paint44_linear_464_283" x1="96.4644" y1="91.9971" x2="96.5659" y2="92.1707" gradientUnits="userSpaceOnUse">
<stop offset="0.16" stop-color="#FF8E02"/>
<stop offset="0.5" stop-color="#F9ED32"/>
<stop offset="0.979" stop-color="#F9ED79"/>
</linearGradient>
<linearGradient id="paint45_linear_464_283" x1="96.8217" y1="92.4824" x2="96.8987" y2="92.614" gradientUnits="userSpaceOnUse">
<stop offset="0.16" stop-color="#FF8E02"/>
<stop offset="0.5" stop-color="#F9ED32"/>
<stop offset="0.979" stop-color="#F9ED79"/>
</linearGradient>
<linearGradient id="paint46_linear_464_283" x1="96.9924" y1="92.7677" x2="97.1237" y2="92.9921" gradientUnits="userSpaceOnUse">
<stop offset="0.16" stop-color="#FF8E02"/>
<stop offset="0.5" stop-color="#F9ED32"/>
<stop offset="0.979" stop-color="#F9ED79"/>
</linearGradient>
<linearGradient id="paint47_linear_464_283" x1="96.9087" y1="93.9308" x2="97.1098" y2="94.2743" gradientUnits="userSpaceOnUse">
<stop offset="0.16" stop-color="#FF8E02"/>
<stop offset="0.5" stop-color="#F9ED32"/>
<stop offset="0.979" stop-color="#F9ED79"/>
</linearGradient>
<linearGradient id="paint48_linear_464_283" x1="97.5573" y1="97.0804" x2="97.6008" y2="97.1558" gradientUnits="userSpaceOnUse">
<stop offset="0.16" stop-color="#FF8E02"/>
<stop offset="0.5" stop-color="#F9ED32"/>
<stop offset="0.979" stop-color="#F9ED79"/>
</linearGradient>
<linearGradient id="paint49_linear_464_283" x1="97.1144" y1="97.926" x2="97.163" y2="98.0104" gradientUnits="userSpaceOnUse">
<stop offset="0.16" stop-color="#FF8E02"/>
<stop offset="0.5" stop-color="#F9ED32"/>
<stop offset="0.979" stop-color="#F9ED79"/>
</linearGradient>
<linearGradient id="paint50_linear_464_283" x1="96.9487" y1="98.5464" x2="96.9924" y2="98.6221" gradientUnits="userSpaceOnUse">
<stop offset="0.16" stop-color="#FF8E02"/>
<stop offset="0.5" stop-color="#F9ED32"/>
<stop offset="0.979" stop-color="#F9ED79"/>
</linearGradient>
<linearGradient id="paint51_linear_464_283" x1="97.3131" y1="96.6492" x2="97.3567" y2="96.7246" gradientUnits="userSpaceOnUse">
<stop offset="0.16" stop-color="#FF8E02"/>
<stop offset="0.5" stop-color="#F9ED32"/>
<stop offset="0.979" stop-color="#F9ED79"/>
</linearGradient>
<linearGradient id="paint52_linear_464_283" x1="54.7794" y1="53.7661" x2="54.7794" y2="69.8422" gradientUnits="userSpaceOnUse">
<stop offset="0.175" stop-color="#FDF2EB"/>
<stop offset="1" stop-color="#FBE0B8"/>
</linearGradient>
<linearGradient id="paint53_linear_464_283" x1="50.7859" y1="53.2877" x2="50.7859" y2="62.3609" gradientUnits="userSpaceOnUse">
<stop offset="0.175" stop-color="#FBE0B8"/>
<stop offset="1" stop-color="#FBE0B8"/>
</linearGradient>
</defs>
</svg>
