<svg width="40" height="40" viewBox="0 0 40 40" fill="none" xmlns="http://www.w3.org/2000/svg">
<path d="M10.4005 34.3364L11.0588 34.6605C13.8018 36.2808 16.8737 37.037 19.9457 37.037C29.6006 37.037 37.5 29.2592 37.5 19.7531C37.5 15.2161 35.6348 10.787 32.3435 7.54625C29.052 4.30546 24.6633 2.46912 19.9457 2.46912C10.2909 2.46912 2.39135 10.2469 2.50113 19.8612C2.50113 23.1018 3.48856 26.2346 5.13421 28.9351L5.57303 29.5834L3.81775 35.9569L10.4005 34.3364Z" fill="#00E676"/>
<path d="M34.2234 5.83783C30.5176 2.05412 25.3951 0 20.1634 0C9.04642 0 0.109061 8.97294 0.217965 19.8918C0.217965 23.3513 1.19889 26.7028 2.83386 29.7297L0 40L10.5722 37.2973C13.5149 38.919 16.7846 39.6758 20.0545 39.6758C31.0626 39.6758 40 30.7027 40 19.784C40 14.4865 37.9291 9.51351 34.2235 5.83783H34.2234ZM20.1634 36.3245C17.2207 36.3245 14.2779 35.5678 11.7711 34.0543L11.1172 33.7299L4.79571 35.3515L6.43052 29.1894L5.99459 28.5407C1.19889 20.8651 3.48776 10.7027 11.3351 5.94585C19.1825 1.18917 29.3188 3.45949 34.1145 11.2433C38.91 19.027 36.6211 29.0811 28.7739 33.838C26.2669 35.4595 23.2153 36.3243 20.1634 36.3243V36.3245ZM29.7547 24.3246L28.5558 23.784C28.5558 23.784 26.8121 23.0272 25.7221 22.4867C25.613 22.4867 25.5041 22.3785 25.3951 22.3785C25.068 22.3785 24.8501 22.4867 24.6321 22.5948C24.6321 22.5948 24.5232 22.7029 22.9973 24.4326C22.8882 24.6488 22.6703 24.757 22.4523 24.757H22.3432C22.2343 24.757 22.0164 24.6488 21.9073 24.5408L21.3623 24.3246C20.1634 23.784 19.0736 23.1353 18.2016 22.2705C17.9836 22.0543 17.6566 21.8381 17.4386 21.6219C16.6757 20.8651 15.9127 20.0002 15.3679 19.0272L15.2588 18.811C15.1499 18.7028 15.1499 18.5948 15.0409 18.3786C15.0409 18.1624 15.0409 17.9462 15.1499 17.838C15.1499 17.838 15.5859 17.2974 15.9127 16.9732C16.1308 16.7569 16.2397 16.4326 16.4577 16.2164C16.6757 15.8921 16.7847 15.4597 16.6757 15.1353C16.5668 14.5947 15.2588 11.6758 14.932 11.0272C14.7138 10.7028 14.496 10.5948 14.169 10.4866H12.9701C12.752 10.4866 12.5342 10.5948 12.3161 10.5948L12.207 10.7028C11.989 10.811 11.7711 11.0272 11.5531 11.1352C11.3351 11.3516 11.2261 11.5676 11.0081 11.784C10.2452 12.757 9.80922 13.9461 9.80922 15.1353C9.80922 16.0001 10.0272 16.865 10.3542 17.6218L10.4633 17.9462C11.4442 20.0002 12.752 21.8381 14.496 23.4596L14.932 23.892C15.2588 24.2164 15.5859 24.4326 15.8038 24.7568C18.0927 26.7029 20.7084 28.1083 23.6512 28.8651C23.9782 28.9731 24.4141 28.9731 24.7412 29.0813H25.831C26.376 29.0813 27.0299 28.8651 27.466 28.6489C27.7928 28.4327 28.0108 28.4327 28.2288 28.2165L28.4469 28.0001C28.6649 27.7839 28.8828 27.6759 29.1008 27.4597C29.3188 27.2435 29.5367 27.0273 29.6458 26.811C29.8638 26.3786 29.9727 25.838 30.0817 25.2976V24.5408C30.0817 24.5408 29.9727 24.4326 29.7547 24.3246Z" fill="white"/>
</svg>
